HIERARCHY
ROOT hip
{
	OFFSET 0.000000 0.000000 0.000000 
	CHANNELS 6 Xposition Yposition Zposition Xrotation Zrotation Yrotation
	JOINT abdomen
	{
		OFFSET 0.000000 3.402643 0.000000 
		CHANNELS 3 Xrotation Zrotation Yrotation
		JOINT chest
		{
			OFFSET 0.000000 8.438565 -0.680529 
			CHANNELS 3 Xrotation Zrotation Yrotation
			JOINT neck
			{
				OFFSET 0.000000 10.207942 -0.272212 
				CHANNELS 3 Xrotation Zrotation Yrotation
				JOINT head
				{
					OFFSET 0.000000 3.130431 0.000000 
					CHANNELS 3 Xrotation Zrotation Yrotation
					End Site
					{
						OFFSET 0.000000 3.130435 0.000000 
					}
				}
			}
			JOINT lCollar
			{
				OFFSET 3.470700 6.669187 -0.816635 
				CHANNELS 3 Yrotation Zrotation Xrotation
				JOINT lShldr
				{
					OFFSET 3.198488 0.000000 0.000000 
					CHANNELS 3 Zrotation Yrotation Xrotation
					JOINT lForeArm
					{
						OFFSET 10.139888 0.000000 0.000000 
						CHANNELS 3 Yrotation Zrotation Xrotation
						JOINT lHand
						{
							OFFSET 8.370511 0.000000 0.000000 
							CHANNELS 3 Zrotation Yrotation Xrotation
							End Site
							{
								OFFSET 4.083176 0.000000 0.000000 
							}
						}
					}
				}
			}
			JOINT rCollar
			{
				OFFSET -3.470700 6.669187 -0.816635 
				CHANNELS 3 Yrotation Zrotation Xrotation
				JOINT rShldr
				{
					OFFSET -3.198488 0.000000 0.000000 
					CHANNELS 3 Zrotation Yrotation Xrotation
					JOINT rForeArm
					{
						OFFSET -10.139888 0.000000 0.000000 
						CHANNELS 3 Yrotation Zrotation Xrotation
						JOINT rHand
						{
							OFFSET -8.370511 0.000000 0.000000 
							CHANNELS 3 Zrotation Yrotation Xrotation
							End Site
							{
								OFFSET -4.083176 0.000000 0.000000 
							}
						}
					}
				}
			}
		}
	}
	JOINT lThigh
	{
		OFFSET 5.308129 -1.633274 1.361059 
		CHANNELS 3 Xrotation Zrotation Yrotation
		JOINT lShin
		{
			OFFSET -2.041588 -20.007561 0.000000 
			CHANNELS 3 Xrotation Zrotation Yrotation
			JOINT lFoot
			{
				OFFSET 0.000000 -19.190928 -1.224953 
				CHANNELS 3 Xrotation Yrotation Zrotation
				End Site
				{
					OFFSET 0.000000 -2.449906 4.627600 
				}
			}
		}
	}
	JOINT rThigh
	{
		OFFSET -5.308129 -1.633274 1.361059 
		CHANNELS 3 Xrotation Zrotation Yrotation
		JOINT rShin
		{
			OFFSET 2.041588 -20.007561 0.000000 
			CHANNELS 3 Xrotation Zrotation Yrotation
			JOINT rFoot
			{
				OFFSET 0.000000 -19.190928 -1.224953 
				CHANNELS 3 Xrotation Yrotation Zrotation
				End Site
				{
					OFFSET 0.000000 -2.449906 4.627600 
				}
			}
		}
	}
}
MOTION
Frames: 16
Frame Time: 0.016667
-10.275661 27.270069 -12.364751 -27.625471 -1.690911 -36.727840 0.000000 0.000000 0.000000 36.857376 -2.597571 -4.985960 2.257043 -5.168659 4.637267 -7.583496 -7.799222 33.850121 -13.953960 -25.000000 -18.035387 -66.573494 -4.567378 -1.199734 -104.451729 -2.148317 -14.880118 21.830334 10.607999 3.498011 6.227393 8.871125 -16.718754 69.712471 24.050703 19.509224 89.140205 25.357653 -10.943521 -6.486811 -13.115589 10.132339 -43.132301 42.957958 -17.318686 107.124275 -13.548313 -17.707340 -27.365927 13.604590 0.077143 5.947378 -20.809387 6.047583 129.859665 3.655172 21.900032 -23.288107 -13.018315 -11.274403 
-10.301246 27.260981 -12.351655 -27.641863 -1.666582 -36.766304 0.000000 0.000000 0.000000 36.895153 -2.587880 -4.976203 2.134752 -5.257959 4.402971 -7.714650 -7.762370 33.895660 -14.028460 -25.000000 -18.045052 -66.561966 -4.626240 -1.162995 -104.344147 -2.053914 -14.888378 21.632381 10.557450 3.406776 6.125611 8.821545 -16.688831 69.763412 24.081684 19.449619 89.140076 25.386738 -10.913764 -6.437130 -13.110833 10.167798 -43.063759 42.977345 -17.301777 107.142624 -13.528879 -17.700201 -27.395170 13.611662 0.085973 5.956037 -20.784275 5.982595 129.879318 3.632271 21.815361 -23.326748 -13.100422 -11.153333 
-10.309841 27.260239 -12.349897 -27.647427 -1.658547 -36.775780 0.000000 0.000000 0.000000 36.913395 -2.578190 -4.966007 2.100498 -5.277913 4.334003 -7.759015 -7.758837 33.935528 -14.072662 -25.000000 -18.034273 -66.541107 -4.661678 -1.180075 -104.312782 -2.018108 -14.895027 21.629642 10.512062 3.387180 6.048865 8.814863 -16.669744 69.795166 24.128042 19.508083 89.101112 25.302279 -10.915306 -6.357398 -13.093687 10.164670 -43.016727 42.973545 -17.271822 107.081810 -13.526778 -17.683218 -27.367163 13.605118 0.065957 5.985523 -20.782980 5.889692 129.848541 3.593354 21.699450 -23.363680 -13.147924 -11.235576 
-10.323295 27.267986 -12.345785 -27.639593 -1.642903 -36.775497 0.000000 0.000000 0.000000 36.903633 -2.578190 -4.966007 2.076962 -5.297931 4.256210 -7.849272 -7.762515 33.985023 -14.116864 -24.999161 -18.019361 -66.510208 -4.701977 -1.210819 -104.292725 -2.007137 -14.925271 21.581251 10.471440 3.381915 6.022417 8.822110 -16.680023 69.792152 24.146372 19.497934 89.081970 25.313618 -10.905559 -6.382581 -13.095043 10.228724 -42.986347 42.967987 -17.239941 107.072968 -13.538772 -17.684669 -27.380541 13.605668 0.044244 5.986402 -20.790926 5.815845 129.815109 3.617302 21.605478 -23.326689 -13.115644 -11.298227 
-10.327586 27.271093 -12.343738 -27.621441 -1.626844 -36.794739 0.000000 0.000000 0.000000 36.893864 -2.578190 -4.966007 2.070637 -5.288392 4.226139 -7.871455 -7.760744 34.005615 -14.126145 -24.998590 -17.997185 -66.499771 -4.719683 -1.219383 -104.292725 -2.007137 -14.925271 21.579573 10.475032 3.372985 6.008127 8.835959 -16.691570 69.774742 24.146973 19.502165 89.060822 25.276556 -10.925713 -6.338243 -13.090892 10.247540 -42.982922 42.976002 -17.273859 107.073662 -13.548313 -17.696756 -27.396482 13.611942 0.074410 5.975637 -20.772612 5.782146 129.815781 3.603890 21.533144 -23.331900 -13.108018 -11.295319 
-10.340097 27.279303 -12.338366 -27.596291 -1.595767 -36.784424 0.000000 0.000000 0.000000 36.892582 -2.568499 -4.956251 2.012225 -5.298197 4.216414 -7.857562 -7.734690 34.022259 -14.177640 -24.999599 -18.038439 -66.489418 -4.733503 -1.236913 -104.276253 -2.009044 -14.927392 21.580706 10.462359 3.378361 6.000497 8.826305 -16.720587 69.774742 24.146973 19.502165 89.071754 25.276012 -10.979582 -6.341918 -13.086163 10.304262 -42.986347 42.967987 -17.239941 107.033852 -13.558256 -17.702717 -27.379244 13.599843 0.155675 5.936854 -20.794123 5.764130 129.801147 3.573688 21.561285 -23.332396 -13.141919 -11.271911 
-10.344156 27.282038 -12.336625 -27.582338 -1.587743 -36.793907 0.000000 0.000000 0.000000 36.920189 -2.549040 -4.956250 1.961586 -5.298064 4.236763 -7.850728 -7.727479 34.011311 -14.206401 -25.000000 -18.093721 -66.498970 -4.745355 -1.209224 -104.262039 -1.992000 -14.922623 21.589527 10.443623 3.373024 6.000829 8.803518 -16.758974 69.774742 24.146973 19.502165 89.089470 25.264917 -11.008813 -6.351808 -13.112755 10.327446 -42.948410 42.968449 -17.195889 107.011642 -13.538655 -17.686583 -27.380974 13.599174 0.143516 5.936853 -20.794127 5.764130 129.806580 3.613683 21.549541 -23.331129 -13.113582 -11.287605 
-10.355168 27.289965 -12.331794 -27.566946 -1.556660 -36.783611 0.000000 0.000000 0.000000 36.929543 -2.539274 -4.966006 1.899197 -5.287991 4.285382 -7.886622 -7.723063 34.060806 -14.236460 -25.000000 -18.135845 -66.499046 -4.748040 -1.178461 -104.247833 -1.974946 -14.917514 21.586344 10.368162 3.405281 5.985363 8.795638 -16.797817 69.793404 24.149614 19.507072 89.157166 25.249352 -11.022822 -6.386373 -13.175247 10.348383 -42.927895 42.967911 -17.159073 106.953423 -13.567509 -17.701378 -27.388357 13.593211 0.186884 5.888465 -20.798765 5.779208 129.816360 3.603791 21.514755 -23.326937 -13.090126 -11.259347 
-10.357530 27.293150 -12.330962 -27.567211 -1.556859 -36.773849 0.000000 0.000000 0.000000 36.949074 -2.539274 -4.966006 1.887459 -5.278049 4.314555 -7.911673 -7.731154 34.062122 -14.249919 -24.998108 -18.148104 -66.489006 -4.752912 -1.192112 -104.233711 -1.967364 -14.915140 21.589117 10.321063 3.417863 5.978163 8.838591 -16.801264 69.800720 24.152279 19.498854 89.177612 25.267023 -11.012567 -6.414539 -13.202003 10.328800 -42.938320 42.944115 -17.172541 106.963974 -13.565284 -17.682709 -27.385656 13.570450 0.183030 5.936661 -20.792755 5.714305 129.778442 3.593745 21.426535 -23.354744 -13.108715 -11.298830 
-10.363915 27.302250 -12.328501 -27.557447 -1.556859 -36.773853 0.000000 0.000000 0.000000 36.974560 -2.500395 -4.956245 1.877683 -5.287100 4.412693 -7.941310 -7.708645 34.040226 -14.292596 -25.000000 -18.168037 -66.488350 -4.770822 -1.199878 -104.238579 -1.967307 -14.910677 21.563229 10.263042 3.432353 5.964645 8.821658 -16.809586 69.810555 24.161425 19.508913 89.236458 25.252188 -11.021499 -6.419523 -13.269742 10.345347 -42.882904 42.965084 -17.155510 106.935043 -13.577630 -17.677748 -27.385527 13.541448 0.174504 5.947312 -20.810278 5.718103 129.747299 3.587886 21.450026 -23.365362 -13.122758 -11.320773 
-10.364299 27.302654 -12.328321 -27.557447 -1.556859 -36.773853 0.000000 0.000000 0.000000 36.983055 -2.490702 -4.946488 1.883834 -5.286821 4.452487 -7.935793 -7.700553 34.038918 -14.301422 -24.998964 -18.189318 -66.487953 -4.783659 -1.194801 -104.248306 -1.967192 -14.901406 21.593315 10.197598 3.546628 5.958191 8.833785 -16.811308 69.821648 24.173803 19.528120 89.247025 25.261057 -11.026133 -6.443839 -13.264042 10.368721 -42.882904 42.965084 -17.155510 106.925056 -13.587615 -17.705185 -27.381107 13.581327 0.188479 5.956403 -20.797266 5.721752 129.737579 3.594220 21.468672 -23.338745 -13.132043 -11.310225 
-10.366653 27.302011 -12.326203 -27.560165 -1.541803 -36.744045 0.000000 0.000000 0.000000 37.031887 -2.471097 -4.985509 1.864280 -5.218250 4.510835 -7.926593 -7.778802 34.075710 -14.304574 -25.000000 -18.211048 -66.497337 -4.796698 -1.188907 -104.247818 -1.955136 -14.842528 21.580227 10.226340 3.471672 5.991675 8.855531 -16.791441 69.832756 24.222279 19.513695 89.284882 25.277597 -11.083730 -6.526531 -13.297409 10.411317 -42.892323 42.925896 -17.163624 106.923676 -13.577788 -17.709396 -27.362480 13.596853 0.208277 6.034162 -20.823412 5.659951 129.688705 3.594304 21.452127 -23.365311 -13.105867 -11.309902 
-10.366783 27.301973 -12.326088 -27.560165 -1.541803 -36.744045 0.000000 0.000000 0.000000 37.059914 -2.461406 -4.975332 1.853174 -5.178960 4.559461 -7.919438 -7.794087 34.086662 -14.292165 -24.999529 -18.211502 -66.467293 -4.813997 -1.199128 -104.276352 -1.953121 -14.828706 21.586821 10.202103 3.453812 6.013155 8.859328 -16.790991 69.829720 24.240612 19.507557 89.296143 25.276585 -11.078695 -6.511860 -13.288038 10.434446 -42.892323 42.925896 -17.163624 106.923676 -13.577786 -17.709396 -27.362480 13.596854 0.208278 6.054440 -20.816565 5.638878 129.669739 3.594025 21.426659 -23.359808 -13.096869 -11.304512 
-10.366788 27.301973 -12.326087 -27.560165 -1.541803 -36.744045 0.000000 0.000000 0.000000 37.118927 -2.461369 -4.985089 1.823110 -5.187910 4.667323 -7.872329 -7.736587 34.092342 -14.257048 -24.998634 -18.221882 -66.525673 -4.828053 -1.189124 -104.266624 -1.961842 -14.770283 21.611055 10.171215 3.425175 6.047765 8.902891 -16.743847 69.834999 24.313362 19.474813 89.314278 25.255627 -11.107711 -6.462764 -13.272897 10.478489 -42.892315 42.925900 -17.163628 106.923676 -13.577785 -17.709398 -27.362480 13.596854 0.208278 6.054440 -20.816561 5.638878 129.659088 3.594355 21.451298 -23.342999 -13.083004 -11.303411 
-10.366788 27.301973 -12.326087 -27.560165 -1.541803 -36.744045 0.000000 0.000000 0.000000 37.137192 -2.451677 -4.975332 1.802692 -5.187838 4.677049 -7.880555 -7.708789 34.128269 -14.278285 -25.000000 -18.246840 -66.505905 -4.828846 -1.212571 -104.264740 -1.973051 -14.761075 21.623659 10.154358 3.442935 6.057079 8.900124 -16.743620 69.850647 24.334356 19.469639 89.323967 25.254696 -11.092794 -6.451952 -13.296024 10.458747 -42.892315 42.925900 -17.163628 106.923676 -13.577785 -17.709398 -27.362480 13.596854 0.208278 6.054440 -20.816561 5.638878 129.659088 3.594355 21.451298 -23.342999 -13.083004 -11.303411 
-10.368418 27.304529 -12.325541 -27.560165 -1.541803 -36.744045 0.000000 0.000000 0.000000 37.147800 -2.461405 -4.975332 1.800837 -5.177888 4.706226 -7.878408 -7.708897 34.217632 -14.273660 -25.000000 -18.255867 -66.505905 -4.828846 -1.212571 -104.263512 -1.968780 -14.719056 21.615522 10.172348 3.396533 6.100938 8.941002 -16.694744 69.862259 24.358067 19.443119 89.323784 25.244583 -11.024431 -6.443604 -13.346370 10.469402 -42.859806 42.938881 -17.132999 106.913216 -13.567851 -17.682261 -27.352552 13.576149 0.169532 6.054440 -20.816565 5.638878 129.659088 3.594356 21.451300 -23.358883 -13.124058 -11.297192 
